<?xml version="1.0" standalone="no"?>
<!DOCTYPE svg PUBLIC "-//W3C//DTD SVG 20010904//EN"
 "http://www.w3.org/TR/2001/REC-SVG-20010904/DTD/svg10.dtd">
<svg version="1.0" xmlns="http://www.w3.org/2000/svg"
 width="1472.000000pt" height="832.000000pt" viewBox="0 0 1472.000000 832.000000"
 preserveAspectRatio="xMidYMid meet">

<g transform="translate(0.000000,832.000000) scale(0.100000,-0.100000)"
fill="#000000" stroke="none">
<path d="M7429 6477 c-22 -14 -39 -38 -48 -64 -13 -37 -13 -45 3 -88 13 -33
29 -53 52 -67 l34 -20 0 -85 0 -85 -32 7 c-85 18 -130 70 -148 171 -24 143
-87 204 -209 204 -66 0 -105 -13 -201 -68 -171 -98 -204 -115 -308 -154 -161
-60 -328 -96 -506 -110 -174 -13 -173 -12 -109 -88 54 -63 88 -73 233 -74 149
-1 230 15 405 81 146 56 212 88 333 165 115 73 150 81 180 43 28 -36 24 -40
-96 -109 -246 -140 -427 -203 -702 -243 l-55 -8 40 -27 c111 -75 352 -78 542
-8 60 22 234 109 277 139 l29 20 31 -23 c46 -35 142 -67 218 -73 l68 -6 0
-234 0 -233 -22 4 c-13 3 -72 15 -133 26 -241 47 -311 86 -291 165 15 58 110
85 241 67 44 -5 81 -9 83 -7 8 8 -30 65 -62 93 -65 57 -140 63 -257 21 -61
-22 -118 -70 -145 -120 -26 -52 -16 -148 23 -201 37 -52 126 -103 206 -119 31
-6 57 -13 57 -16 0 -2 -16 -18 -35 -35 -91 -80 -84 -206 16 -291 45 -39 136
-87 163 -87 26 0 18 -14 -17 -30 -103 -48 -104 -209 -2 -298 19 -18 47 -35 60
-38 28 -7 32 -19 11 -31 -7 -4 -25 -26 -40 -47 -53 -79 -19 -184 80 -241 27
-15 50 -29 52 -30 1 -1 -5 -18 -13 -38 -29 -69 -16 -132 41 -200 13 -16 24
-37 24 -47 0 -10 5 -22 10 -25 6 -3 10 4 10 17 0 13 14 36 30 52 63 59 86 142
55 196 -21 37 -19 42 30 73 58 37 92 78 106 130 9 36 8 47 -10 84 -11 23 -34
52 -51 64 -37 28 -38 35 -1 42 16 4 46 21 66 38 99 87 101 219 5 288 -37 26
-40 32 -24 37 157 55 231 138 222 249 -3 36 -13 67 -31 93 -29 44 -32 45 -239
103 l-118 32 0 247 0 247 73 6 c70 5 144 31 208 73 26 17 28 16 125 -33 237
-121 377 -158 563 -150 114 5 183 21 225 52 27 20 19 25 -60 36 -179 25 -420
103 -579 188 -238 127 -248 137 -205 176 28 25 64 15 167 -49 285 -175 570
-266 797 -254 120 6 202 55 221 131 l7 27 -89 0 c-173 0 -397 41 -559 104 -80
30 -250 119 -345 181 -82 53 -194 68 -264 36 -74 -33 -97 -73 -125 -213 -6
-31 -20 -68 -32 -83 -23 -29 -87 -65 -118 -65 -19 0 -20 6 -20 85 0 83 0 85
29 100 49 25 71 61 71 119 0 31 -6 61 -16 75 -37 53 -146 68 -205 28z m39
-1319 c2 -76 -1 -118 -8 -118 -15 0 -141 51 -170 69 -66 41 -78 87 -31 120 33
24 132 51 176 48 l30 -2 3 -117z m190 93 c112 -29 144 -60 118 -113 -12 -25
-114 -80 -178 -96 l-38 -10 0 119 c0 89 3 119 13 119 6 0 45 -9 85 -19z m-186
-504 c3 -101 -3 -106 -70 -57 -79 57 -76 97 13 158 58 40 52 50 57 -101z m151
88 c75 -58 75 -104 0 -154 -26 -17 -50 -31 -55 -31 -4 0 -8 50 -8 110 0 61 4
110 9 110 4 0 29 -16 54 -35z m-133 -420 l0 -76 -24 18 c-14 10 -30 28 -37 40
-10 18 -7 26 17 57 16 20 32 36 37 36 4 0 7 -34 7 -75z m130 -1 c0 -5 -13 -23
-30 -39 l-30 -29 0 74 0 74 30 -34 c16 -19 29 -40 30 -46z"/>
<path d="M7807 5828 c-42 -11 -98 -61 -123 -109 l-16 -32 34 6 c98 18 166 19
221 3 68 -20 92 -49 83 -98 -11 -59 -109 -100 -316 -134 -52 -8 -97 -17 -99
-20 -11 -10 20 -23 127 -54 131 -38 192 -37 284 4 108 48 158 113 158 205 0
95 -46 162 -141 205 -63 29 -158 40 -212 24z"/>
<path d="M4875 3750 c-204 -41 -380 -202 -431 -394 -18 -66 -18 -206 0 -272
21 -81 73 -168 136 -230 118 -115 219 -158 380 -158 115 -1 173 11 261 55 120
60 221 171 271 301 25 66 35 213 19 288 -58 270 -360 465 -636 410z m250 -233
c88 -46 133 -99 166 -194 51 -147 -28 -328 -175 -397 -127 -60 -273 -37 -370
58 -76 74 -100 131 -100 236 -1 98 18 151 79 219 73 80 154 112 275 107 58 -2
87 -9 125 -29z"/>
<path d="M6432 3745 c-122 -22 -245 -94 -331 -191 -129 -147 -156 -367 -66
-550 160 -326 584 -413 866 -178 24 20 46 41 48 46 2 6 -25 38 -59 73 l-62 63
-56 -39 c-190 -133 -434 -86 -537 103 -24 44 -30 68 -33 141 -4 82 -3 91 27
152 93 189 343 242 528 113 l57 -40 24 28 c13 16 42 48 64 72 47 50 47 51 -47
117 -114 82 -279 117 -423 90z"/>
<path d="M3330 3220 l0 -510 248 0 c287 0 351 8 448 55 170 83 269 231 281
425 10 153 -38 282 -147 390 -70 71 -156 119 -248 139 -32 6 -158 11 -317 11
l-265 0 0 -510z m581 293 c60 -27 119 -86 150 -149 20 -41 24 -64 24 -139 0
-101 -18 -150 -79 -221 -66 -77 -156 -104 -347 -104 l-119 0 0 321 0 321 163
-4 c140 -3 168 -6 208 -25z"/>
<path d="M7107 3723 c-4 -3 -7 -157 -7 -342 0 -363 6 -413 53 -493 35 -61 107
-125 175 -156 82 -37 239 -43 330 -13 117 40 192 104 243 206 43 88 49 147 49
486 0 271 -2 308 -16 313 -22 9 -167 7 -181 -2 -9 -5 -13 -97 -15 -337 -3
-325 -3 -331 -27 -379 -61 -123 -244 -153 -342 -55 -54 54 -59 91 -59 459 l0
320 -98 0 c-54 0 -102 -3 -105 -7z"/>
<path d="M8195 3722 c-10 -10 -5 -1001 5 -1007 6 -3 53 -3 105 1 l95 7 0 188
0 189 50 0 c41 0 51 -4 61 -22 11 -21 226 -346 236 -358 6 -6 243 -3 249 3 3
2 -29 50 -70 105 -131 176 -206 282 -206 290 0 4 16 14 36 21 20 7 61 36 89
65 62 59 85 121 85 222 0 154 -90 259 -250 293 -55 12 -473 14 -485 3z m452
-191 c49 -23 73 -62 73 -121 0 -102 -58 -139 -217 -140 l-103 0 0 140 0 140
103 0 c78 0 112 -5 144 -19z"/>
<path d="M9155 3718 c-3 -7 -4 -236 -3 -508 l3 -495 330 0 330 0 3 93 3 92
-231 0 -230 0 0 120 0 120 190 0 190 0 0 90 0 90 -190 0 -191 0 3 112 3 113
217 -4 217 -3 3 92 c2 50 1 94 -1 96 -2 2 -148 4 -323 4 -246 0 -320 -3 -323
-12z"/>
<path d="M10646 3698 c-16 -39 -61 -148 -141 -343 -31 -77 -88 -214 -127 -305
-94 -221 -128 -308 -128 -326 0 -12 18 -14 113 -12 l112 3 35 82 c42 100 27
95 274 91 l179 -3 36 -85 36 -85 113 -3 c61 -1 112 0 112 2 0 9 -85 213 -175
421 -48 110 -102 236 -120 280 -19 44 -56 132 -84 195 l-50 115 -86 3 -86 3
-13 -33z m170 -458 c30 -74 56 -141 57 -148 2 -9 -29 -13 -126 -15 -70 -1
-127 0 -127 3 0 3 28 76 62 163 41 102 66 153 71 145 4 -7 33 -74 63 -148z"/>
<path d="M11327 3723 c-4 -3 -7 -230 -7 -504 l0 -499 23 -5 c12 -3 60 -5 107
-3 l85 3 3 508 2 507 -103 0 c-57 0 -107 -3 -110 -7z"/>
<path d="M5692 3640 c-61 -37 -79 -122 -39 -181 47 -69 142 -76 205 -13 33 33
34 38 30 89 -5 61 -25 90 -75 111 -45 19 -82 17 -121 -6z"/>
<path d="M5702 3204 c-42 -21 -62 -60 -62 -118 0 -113 138 -167 219 -85 79 79
31 205 -82 216 -27 2 -54 -3 -75 -13z"/>
<path d="M10014 2940 c-53 -21 -87 -105 -64 -159 17 -42 43 -62 92 -71 63 -12
110 10 139 65 22 42 23 47 9 87 -25 71 -105 107 -176 78z"/>
<path d="M3598 2398 c-12 -29 -46 -102 -75 -161 -29 -60 -51 -113 -48 -118 14
-21 50 -8 65 24 15 31 17 32 86 35 l72 3 21 -36 c17 -30 25 -35 44 -29 12 3
23 7 25 9 1 1 -16 42 -39 91 -22 49 -51 114 -65 144 -48 108 -56 111 -86 38z
m59 -113 l21 -55 -48 0 -48 0 21 55 c12 30 24 55 27 55 3 0 15 -25 27 -55z"/>
<path d="M5395 2442 c-51 -7 -101 -56 -115 -112 -32 -134 65 -239 195 -210 50
11 73 33 56 54 -10 11 -18 13 -31 6 -24 -13 -96 -13 -121 0 -49 27 -64 136
-24 180 30 33 85 45 128 27 34 -15 38 -15 47 2 7 13 6 22 -3 29 -23 18 -89 30
-132 24z"/>
<path d="M5687 2436 c-52 -19 -82 -49 -96 -95 -16 -54 -14 -89 9 -138 25 -57
69 -83 140 -83 79 0 100 8 100 36 0 27 -9 29 -60 14 -77 -22 -140 28 -140 111
0 87 70 136 147 104 37 -16 63 -7 63 20 0 30 -109 51 -163 31z"/>
<path d="M4110 2281 l0 -161 30 0 30 0 1 98 1 97 41 -87 c22 -49 46 -88 53
-88 7 0 31 37 54 83 23 45 45 86 51 92 5 5 9 -29 9 -93 l0 -102 25 0 25 0 0
160 0 160 -24 0 c-26 0 -66 -51 -113 -148 l-26 -53 -51 98 c-44 84 -55 98 -79
101 l-27 3 0 -160z"/>
<path d="M4530 2280 l0 -160 100 0 100 0 0 25 c0 24 -2 25 -70 25 l-70 0 0 45
0 44 62 3 c59 3 63 4 62 27 0 24 -2 25 -62 22 l-62 -2 0 40 0 41 70 0 c68 0
70 1 70 25 l0 25 -100 0 -100 0 0 -160z"/>
<path d="M4809 2439 c0 -2 -1 -75 -2 -162 l-2 -159 92 4 c101 3 135 19 163 74
23 44 20 136 -6 170 -41 56 -69 69 -160 73 -46 1 -84 1 -85 0z m173 -74 c33
-30 43 -63 35 -113 -9 -54 -46 -82 -108 -82 l-49 0 0 110 0 110 48 0 c37 0 53
-6 74 -25z"/>
<path d="M5150 2280 l0 -160 32 0 31 0 -6 113 c-4 61 -7 133 -7 160 0 43 -2
47 -25 47 l-25 0 0 -160z"/>
<path d="M5970 2343 c-23 -54 -55 -126 -70 -160 l-29 -63 29 0 c22 0 32 7 42
28 12 25 18 27 85 30 71 3 72 3 88 -28 11 -21 23 -30 40 -30 14 0 25 2 25 4 0
5 -43 106 -96 229 -26 59 -44 87 -55 87 -12 0 -30 -31 -59 -97z m88 -65 l21
-48 -50 0 c-27 0 -49 3 -49 6 0 18 44 104 50 97 4 -4 17 -29 28 -55z"/>
<path d="M6240 2280 l0 -161 93 3 c84 3 92 5 92 23 0 17 -8 21 -65 25 l-65 5
-3 133 -3 132 -24 0 -25 0 0 -160z"/>
<path d="M6777 2327 c-27 -62 -57 -133 -68 -159 l-19 -48 28 0 c22 0 30 7 39
30 11 29 13 30 83 30 68 0 72 -1 88 -29 16 -28 57 -47 67 -31 3 5 -11 43 -31
87 -82 182 -109 233 -124 233 -9 -1 -33 -42 -63 -113z m96 -42 l27 -55 -55 0
-55 0 16 38 c9 20 18 45 21 55 8 28 17 20 46 -38z"/>
<path d="M7062 2417 c-22 -23 -27 -53 -16 -94 4 -14 29 -34 70 -55 67 -34 85
-58 63 -84 -13 -16 -85 -16 -120 0 -18 8 -32 -15 -23 -38 7 -18 36 -26 100
-26 72 0 104 26 104 84 0 52 -31 88 -93 109 -49 16 -67 39 -51 65 12 18 61 23
101 9 17 -6 24 -3 33 13 9 17 7 22 -15 30 -15 6 -50 10 -79 10 -42 0 -57 -5
-74 -23z"/>
<path d="M7333 2421 c-55 -52 -37 -109 48 -152 66 -33 73 -41 65 -74 -8 -32
-42 -40 -94 -22 -45 16 -52 13 -52 -15 0 -24 38 -38 100 -38 61 0 98 28 107
82 5 32 1 41 -24 67 -16 16 -49 35 -72 42 -55 16 -72 46 -41 71 25 21 52 23
82 7 16 -9 24 -8 36 5 25 25 1 39 -71 44 -53 3 -65 1 -84 -17z"/>
<path d="M7580 2280 l0 -161 26 3 27 3 -1 155 -1 155 -26 3 -25 3 0 -161z"/>
<path d="M7748 2426 c-27 -20 -39 -61 -27 -94 7 -20 26 -38 62 -57 57 -31 87
-53 87 -67 0 -17 -41 -48 -62 -48 -13 0 -36 7 -52 15 -32 17 -46 12 -46 -16 0
-25 36 -39 100 -39 68 0 105 31 105 90 0 36 -6 47 -33 70 -18 15 -47 31 -64
36 -39 12 -57 37 -42 62 12 18 49 21 95 8 22 -6 27 -4 32 14 4 16 -1 23 -19
31 -36 13 -116 11 -136 -5z"/>
<path d="M7962 2418 c2 -19 10 -24 41 -26 31 -3 37 -7 38 -28 1 -13 3 -28 4
-34 1 -5 3 -55 4 -110 1 -100 1 -100 26 -100 l25 0 0 134 0 135 48 3 c39 3 47
6 47 23 0 19 -8 20 -118 23 -118 3 -118 3 -115 -20z"/>
<path d="M8300 2368 c-18 -40 -51 -110 -72 -155 -21 -45 -38 -84 -38 -87 0 -3
13 -6 28 -6 22 0 30 7 39 30 11 30 12 30 86 30 73 0 75 0 87 -30 7 -16 18 -31
24 -31 13 -2 40 2 44 6 1 1 -13 38 -32 81 -70 162 -107 234 -120 234 -7 0 -28
-33 -46 -72z m79 -90 l20 -48 -55 0 c-53 0 -54 1 -44 23 50 100 47 99 79 25z"/>
<path d="M8554 2427 c-2 -7 -3 -78 -2 -157 3 -144 3 -145 26 -145 23 0 24 2
24 108 1 59 3 107 4 107 2 0 35 -44 75 -97 125 -171 129 -170 129 37 l0 160
-25 0 -25 0 0 -107 c0 -123 8 -125 -98 14 -69 89 -96 109 -108 80z"/>
<path d="M8959 2417 c-91 -60 -91 -208 0 -271 44 -31 124 -35 172 -10 34 17
37 52 4 45 -11 -2 -44 -5 -73 -8 -49 -5 -54 -3 -87 30 -55 55 -47 130 19 175
38 26 66 28 105 7 26 -13 30 -13 45 4 16 18 16 20 -6 35 -36 25 -137 22 -179
-7z"/>
<path d="M9230 2438 c0 -2 -1 -73 -2 -158 l-1 -155 99 0 c92 0 99 1 99 20 0
18 -8 20 -72 23 l-73 3 0 44 0 45 58 0 c66 0 72 3 65 31 -5 16 -14 19 -64 19
l-59 0 0 40 0 40 70 0 c68 0 70 1 70 25 0 25 0 25 -95 25 -52 0 -95 -1 -95 -2z"/>
<path d="M9680 2280 l0 -160 25 0 c24 0 25 3 25 60 l0 60 54 0 c74 0 116 33
116 92 0 79 -40 108 -150 108 l-70 0 0 -160z m154 94 c19 -18 20 -38 6 -65 -8
-15 -22 -19 -60 -19 l-50 0 0 50 0 50 44 0 c27 0 51 -6 60 -16z"/>
<path d="M9975 2428 c-3 -8 -4 -79 -3 -158 3 -142 4 -145 26 -148 21 -3 22 0
22 62 0 36 3 67 8 69 19 12 53 -17 84 -70 27 -45 40 -59 61 -61 15 -2 27 -1
27 3 0 11 -42 90 -57 107 -13 15 -12 18 6 28 52 27 64 116 20 156 -28 25 -186
35 -194 12z m157 -58 c36 -44 -15 -85 -89 -72 -20 4 -23 11 -23 46 0 24 2 45
5 48 14 13 91 -2 107 -22z"/>
<path d="M10329 2419 c-51 -30 -69 -66 -69 -136 0 -101 59 -163 154 -163 62 0
128 36 146 80 16 38 16 131 -1 162 -28 55 -70 78 -141 78 -35 0 -65 -7 -89
-21z m164 -60 c22 -24 27 -39 27 -80 0 -43 -5 -55 -29 -80 -25 -24 -38 -29
-78 -29 -71 0 -98 30 -98 110 0 48 4 63 24 84 42 44 109 42 154 -5z"/>
<path d="M10677 2433 c-4 -3 -7 -61 -7 -128 0 -125 -6 -145 -42 -145 -11 0
-18 -7 -18 -20 0 -17 7 -20 39 -20 64 0 71 19 71 182 0 127 -1 138 -18 138
-10 0 -22 -3 -25 -7z"/>
<path d="M10825 2427 c-3 -7 -4 -78 -3 -157 l3 -145 98 -3 97 -3 0 26 c0 24
-2 25 -70 25 -65 0 -70 2 -76 24 -3 13 -4 35 -2 47 3 22 8 24 71 27 58 2 68 6
65 20 -2 13 -17 18 -68 22 l-65 5 -3 40 -3 40 76 -3 c75 -4 77 -3 73 20 -3 22
-7 23 -96 26 -70 2 -94 0 -97 -11z"/>
<path d="M11154 2421 c-37 -23 -74 -94 -74 -143 0 -51 39 -120 81 -140 69 -36
194 -13 182 32 -4 15 -11 19 -22 15 -68 -28 -122 -22 -158 17 -84 93 21 238
134 184 38 -18 53 -14 53 15 0 26 -37 39 -108 39 -38 0 -67 -6 -88 -19z"/>
<path d="M11407 2433 c-18 -18 -4 -32 36 -35 l42 -3 3 -137 3 -138 24 0 25 0
0 141 0 141 38 -3 c55 -3 61 -1 55 21 -5 18 -14 20 -112 20 -59 0 -111 -3
-114 -7z"/>
</g>
</svg>
